<?xml version="1.0" encoding="utf-8"?>
<!-- Svg Vector Icons : http://www.onlinewebfonts.com/icon -->
<!DOCTYPE svg PUBLIC "-//W3C//DTD SVG 1.1//EN" "http://www.w3.org/Graphics/SVG/1.1/DTD/svg11.dtd">
<svg version="1.1" xmlns="http://www.w3.org/2000/svg" xmlns:xlink="http://www.w3.org/1999/xlink" x="0px" y="0px" viewBox="0 0 256 256" enable-background="new 0 0 256 256" xml:space="preserve">
<metadata> Svg Vector Icons : http://www.onlinewebfonts.com/icon </metadata>
<g><g><path fill="#000000" d="M215.9,171.1c0.1-0.5,0.2-1,0.2-1.5v-43.9c0-10.3-8.4-18.8-18.8-18.8h-63.2v-22c17.1-3.4,30-18.5,30-36.5c0-20.5-16.7-37.2-37.2-37.2c-20.5,0-37.2,16.7-37.2,37.2c0,18.1,12.9,33.1,30,36.5v22.1H56.5c-10.3,0-18.8,8.4-18.8,18.8v43.6c-15.9,4.2-27.7,18.7-27.7,36c0,20.5,16.7,37.2,37.2,37.2s37.2-16.7,37.2-37.2c0-18.9-14.1-34.5-32.3-36.9v-42.8c0-2.4,2-4.3,4.3-4.3h140.8c2.4,0,4.3,2,4.3,4.3v43.9c0,0.5,0,1,0.2,1.5c-17.2,3.3-30.2,18.4-30.2,36.6c0,20.5,16.7,37.2,37.2,37.2c20.5,0,37.2-16.7,37.2-37.2C246,189.5,233,174.4,215.9,171.1L215.9,171.1z"/></g></g>
</svg>