<?xml version="1.0" encoding="UTF-8" standalone="no"?>
<svg xmlns:xlink="http://www.w3.org/1999/xlink" height="57.65px" width="57.65px" xmlns="http://www.w3.org/2000/svg">
  <g transform="matrix(1.0, 0.0, 0.0, 1.0, 0.0, 0.0)">
    <use data-characterId="11" height="100.0" transform="matrix(0.5763, 0.0, 0.0, 0.5763, 0.0, 0.0)" width="100.0" xlink:href="#sprite0"/>
    <use data-characterId="141" height="54.25" transform="matrix(1.0, 0.0, 0.0, 1.0, 2.1, 1.55)" width="53.55" xlink:href="#shape1"/>
  </g>
  <defs>
    <g id="sprite0" transform="matrix(1.0, 0.0, 0.0, 1.0, 0.0, 0.0)">
      <use data-characterId="10" height="197.7" transform="matrix(0.1691, 0.0, 0.0, 0.5058, 0.016, -0.016)" width="591.4" xlink:href="#shape0"/>
    </g>
    <g id="shape0" transform="matrix(1.0, 0.0, 0.0, 1.0, 85.95, 67.25)">
      <path d="M-85.95 -67.25 L505.45 -67.25 505.45 130.45 -85.95 130.45 -85.95 -67.25" fill="#000000" fill-rule="evenodd" stroke="none"/>
    </g>
    <g id="shape1" transform="matrix(1.0, 0.0, 0.0, 1.0, -2.1, -1.55)">
      <path d="M43.9 36.95 L43.7 36.95 43.7 20.1 43.9 20.1 43.9 36.95" fill="#b06615" fill-rule="evenodd" stroke="none"/>
      <path d="M42.2 36.95 L15.9 36.95 15.9 20.1 42.2 20.1 42.2 36.95" fill="url(#gradient0)" fill-rule="evenodd" stroke="none"/>
      <path d="M14.05 20.1 L14.05 36.95 2.3 36.95 2.3 20.1 14.05 20.1" fill="url(#gradient1)" fill-rule="evenodd" stroke="none"/>
      <path d="M28.4 19.6 L2.1 19.6 2.1 1.55 28.4 1.55 28.4 19.6" fill="url(#gradient2)" fill-rule="evenodd" stroke="none"/>
      <path d="M55.45 1.55 L55.45 19.6 29.3 19.6 29.3 1.55 55.45 1.55" fill="url(#gradient3)" fill-rule="evenodd" stroke="none"/>
      <path d="M28.4 37.75 L28.4 55.8 2.1 55.8 2.1 37.75 28.4 37.75" fill="url(#gradient4)" fill-rule="evenodd" stroke="none"/>
      <path d="M29.3 37.75 L55.45 37.75 55.45 55.8 29.3 55.8 29.3 37.75" fill="url(#gradient5)" fill-rule="evenodd" stroke="none"/>
      <path d="M43.9 20.1 L55.65 20.1 55.65 36.95 43.9 36.95 43.9 20.1" fill="url(#gradient6)" fill-rule="evenodd" stroke="none"/>
    </g>
    <linearGradient gradientTransform="matrix(0.0349, 0.026, -0.0061, 0.0082, 32.45, 34.0)" gradientUnits="userSpaceOnUse" id="gradient0" spreadMethod="pad" x1="-819.2" x2="819.2">
      <stop offset="0.0" stop-color="#facb65"/>
      <stop offset="0.6039215686274509" stop-color="#ae6212"/>
      <stop offset="1.0" stop-color="#7f4910"/>
    </linearGradient>
    <linearGradient gradientTransform="matrix(0.0252, 0.0254, -0.0073, 0.0072, 14.65, 34.5)" gradientUnits="userSpaceOnUse" id="gradient1" spreadMethod="pad" x1="-819.2" x2="819.2">
      <stop offset="0.0" stop-color="#facb65"/>
      <stop offset="0.6039215686274509" stop-color="#ae6212"/>
      <stop offset="1.0" stop-color="#7f4910"/>
    </linearGradient>
    <linearGradient gradientTransform="matrix(0.0445, 0.0348, -0.0068, 0.0087, 19.85, 18.8)" gradientUnits="userSpaceOnUse" id="gradient2" spreadMethod="pad" x1="-819.2" x2="819.2">
      <stop offset="0.0" stop-color="#facb65"/>
      <stop offset="0.6039215686274509" stop-color="#ae6212"/>
      <stop offset="1.0" stop-color="#7f4910"/>
    </linearGradient>
    <linearGradient gradientTransform="matrix(0.0415, 0.0325, -0.0114, 0.0146, 46.55, 14.6)" gradientUnits="userSpaceOnUse" id="gradient3" spreadMethod="pad" x1="-819.2" x2="819.2">
      <stop offset="0.0" stop-color="#facb65"/>
      <stop offset="0.6039215686274509" stop-color="#ae6212"/>
      <stop offset="1.0" stop-color="#7f4910"/>
    </linearGradient>
    <linearGradient gradientTransform="matrix(0.0407, 0.0319, -0.0115, 0.0146, 21.1, 52.85)" gradientUnits="userSpaceOnUse" id="gradient4" spreadMethod="pad" x1="-819.2" x2="819.2">
      <stop offset="0.0" stop-color="#facb65"/>
      <stop offset="0.6039215686274509" stop-color="#ae6212"/>
      <stop offset="1.0" stop-color="#7f4910"/>
    </linearGradient>
    <linearGradient gradientTransform="matrix(0.0325, 0.0383, -0.0084, 0.0071, 47.25, 51.65)" gradientUnits="userSpaceOnUse" id="gradient5" spreadMethod="pad" x1="-819.2" x2="819.2">
      <stop offset="0.0" stop-color="#facb65"/>
      <stop offset="0.6039215686274509" stop-color="#ae6212"/>
      <stop offset="1.0" stop-color="#7f4910"/>
    </linearGradient>
    <linearGradient gradientTransform="matrix(0.0395, 0.0397, -0.0073, 0.0072, 52.75, 33.2)" gradientUnits="userSpaceOnUse" id="gradient6" spreadMethod="pad" x1="-819.2" x2="819.2">
      <stop offset="0.0" stop-color="#facb65"/>
      <stop offset="0.6039215686274509" stop-color="#ae6212"/>
      <stop offset="1.0" stop-color="#7f4910"/>
    </linearGradient>
  </defs>
</svg>
